<svg version="1.1" id="Layer_1" xmlns="http://www.w3.org/2000/svg" xmlns:xlink="http://www.w3.org/1999/xlink" x="0px" y="0px"
	 width="100%" viewBox="0 0 171 171" enable-background="new 0 0 171 171" xml:space="preserve">
<path fill="#391D00" opacity="1.000000" stroke="none" 
	d="
M93.000000,1.000000 
	C96.362099,1.000000 99.724205,1.000000 103.601700,1.367627 
	C104.932747,2.179843 105.700226,2.847466 106.571259,3.035558 
	C119.593193,5.847554 131.173370,11.657893 141.004944,20.537901 
	C146.461777,25.466597 151.788300,30.803814 155.985779,36.789795 
	C160.365280,43.035351 163.317734,50.281578 166.435272,57.060226 
	C154.990936,57.011803 144.005432,56.993484 133.013672,56.509285 
	C133.004471,50.942730 132.908936,45.839752 133.035828,40.742313 
	C133.103912,38.006989 132.102661,36.898937 129.313583,36.963493 
	C123.886971,37.089073 118.455101,36.987282 113.017685,36.512505 
	C113.005554,30.944046 112.908020,25.840443 113.034225,20.742378 
	C113.101982,18.005045 112.098320,16.900780 109.310287,16.965132 
	C103.882980,17.090406 98.450424,16.987850 93.014023,16.514109 
	C93.005333,11.032372 93.002663,6.016186 93.000000,1.000000 
z"/>
<path fill="none" opacity="1.000000" stroke="none" 
	d="
M166.894073,57.090332 
	C163.317734,50.281578 160.365280,43.035351 155.985779,36.789795 
	C151.788300,30.803814 146.461777,25.466597 141.004944,20.537901 
	C131.173370,11.657893 119.593193,5.847554 106.571259,3.035558 
	C105.700226,2.847466 104.932747,2.179843 104.058548,1.367627 
	C126.592964,1.000000 149.185928,1.000000 172.000000,1.000000 
	C172.000000,23.020401 172.000000,45.041542 171.618530,67.555046 
	C169.789383,64.395050 168.341721,60.742691 166.894073,57.090332 
z"/>
<path fill="none" opacity="1.000000" stroke="none" 
	d="
M0.999999,68.000000 
	C1.000000,45.739277 1.000000,23.478554 1.000000,1.000000 
	C23.353756,1.000000 45.708221,1.000000 68.535202,1.384281 
	C63.655937,3.564538 58.304165,5.360514 52.620255,7.240078 
	C47.153160,10.525688 42.018192,13.727711 36.535660,16.975719 
	C29.533030,23.648380 22.877970,30.275055 16.062721,37.233223 
	C12.656419,44.051861 9.410304,50.539001 5.991283,57.363075 
	C4.876806,60.511909 4.020881,63.357445 2.938194,66.113914 
	C2.637912,66.878426 1.664554,67.378563 0.999999,68.000000 
z"/>
<path fill="none" opacity="1.000000" stroke="none" 
	d="
M172.000000,105.000000 
	C172.000000,127.260719 172.000000,149.521439 172.000000,172.000000 
	C149.646240,172.000000 127.291779,172.000000 104.153946,171.674103 
	C106.614479,170.257782 109.858376,169.167374 113.478897,168.033920 
	C120.615868,164.675842 127.376221,161.360794 134.451965,157.916702 
	C141.109482,151.828568 147.451599,145.869476 154.010620,139.642670 
	C158.433273,131.932755 162.639008,124.490532 166.926224,116.671349 
	C167.649353,114.469589 168.177032,112.593925 168.962799,110.833450 
	C169.854691,108.835182 170.977554,106.939995 172.000000,105.000000 
z"/>
<path fill="none" opacity="1.000000" stroke="none" 
	d="
M69.000000,172.000000 
	C46.407028,172.000000 23.814054,172.000000 1.000000,172.000000 
	C1.000000,149.979599 1.000000,127.958458 1.326244,105.153046 
	C3.157502,108.577599 4.662517,112.786415 6.198884,117.364120 
	C8.454856,121.843086 10.679475,125.953171 12.950186,130.422424 
	C14.307022,132.886459 15.617767,134.991333 17.055241,137.411072 
	C22.459194,143.096405 27.736422,148.466873 33.325699,153.976166 
	C35.079746,155.120407 36.521740,156.125809 38.101219,157.447784 
	C42.796665,160.198944 47.354622,162.633514 52.077274,165.416626 
	C57.545326,167.195038 62.859558,168.587555 68.131950,170.123672 
	C68.566628,170.250320 68.717339,171.351578 69.000000,172.000000 
z"/>
<path fill="#C6CC51" opacity="1.000000" stroke="none" 
	d="
M0.999999,68.449982 
	C1.664554,67.378563 2.637912,66.878426 2.938194,66.113914 
	C4.020881,63.357445 4.876806,60.511909 6.449159,57.355457 
	C15.703592,57.023361 24.327242,57.035820 32.968506,57.511230 
	C32.990791,60.793686 32.999065,63.613190 32.999500,66.432693 
	C33.001141,77.047333 33.000187,77.047333 44.166878,77.144531 
	C46.576962,79.903931 48.408970,78.325737 50.592709,76.932816 
	C51.617775,76.961311 52.302940,76.983704 52.994354,77.473526 
	C52.990868,83.580360 52.981129,89.219757 52.829704,95.128159 
	C52.090897,95.938728 51.493767,96.480301 50.435982,97.016281 
	C44.302773,97.045105 38.630222,97.079521 32.493355,97.075958 
	C25.684761,97.024567 19.340479,97.011147 13.020008,96.996094 
	C13.043821,96.994469 13.058249,96.948631 13.039694,96.483704 
	C13.014082,93.720749 13.001323,91.422729 13.000924,89.124710 
	C12.998822,76.999748 12.999902,76.999748 1.000000,77.000000 
	C1.000000,74.299988 1.000000,71.599968 0.999999,68.449982 
z"/>
<path fill="#6F4117" opacity="1.000000" stroke="none" 
	d="
M166.435272,57.060226 
	C168.341721,60.742691 169.789383,64.395050 171.618530,68.023705 
	C172.000000,77.354225 172.000000,86.708458 171.531555,96.530975 
	C166.271164,96.997734 161.476212,96.893364 156.688446,97.033768 
	C153.873764,97.116310 152.851730,95.977203 152.970291,93.235283 
	C153.112915,89.936722 152.719864,86.597176 153.067474,83.329498 
	C153.581024,78.501839 152.220169,76.331116 146.906830,76.895760 
	C142.333160,77.381798 137.664627,76.974991 133.024506,76.498672 
	C133.001724,69.696609 132.992477,63.358837 132.992157,57.009750 
	C133.001053,56.998444 133.019913,56.975166 133.019913,56.975166 
	C144.005432,56.993484 154.990936,57.011803 166.435272,57.060226 
z"/>
<path fill="#316033" opacity="1.000000" stroke="none" 
	d="
M133.038040,76.962952 
	C137.664627,76.974991 142.333160,77.381798 146.906830,76.895760 
	C152.220169,76.331116 153.581024,78.501839 153.067474,83.329498 
	C152.719864,86.597176 153.112915,89.936722 152.970291,93.235283 
	C152.851730,95.977203 153.873764,97.116310 156.688446,97.033768 
	C161.476212,96.893364 166.271164,96.997734 171.531555,96.999634 
	C172.000000,99.370560 172.000000,101.741112 172.000000,104.555832 
	C170.977554,106.939995 169.854691,108.835182 168.962799,110.833450 
	C168.177032,112.593925 167.649353,114.469589 166.470581,116.656517 
	C158.879318,116.978142 151.825180,116.937637 144.862686,116.541092 
	C143.276138,110.898880 140.899719,109.466354 136.427002,110.486221 
	C135.470062,110.704422 134.166733,109.403496 133.012817,108.351120 
	C132.992416,97.609039 132.982193,87.318245 132.988403,77.011292 
	C133.004822,76.995140 133.038040,76.962952 133.038040,76.962952 
z"/>
<path fill="#6F4117" opacity="1.000000" stroke="none" 
	d="
M92.531601,1.000000 
	C93.002663,6.016186 93.005333,11.032372 93.003441,16.524839 
	C92.998886,17.001120 92.978355,17.021782 92.512070,17.014130 
	C85.709198,16.992052 79.372612,16.977629 73.024857,16.498775 
	C73.009125,11.022899 73.004562,6.011449 73.000000,1.000000 
	C79.354401,1.000000 85.708794,1.000000 92.531601,1.000000 
z"/>
<path fill="#F6E3D4" opacity="1.000000" stroke="none" 
	d="
M93.000000,172.000000 
	C86.645599,172.000000 80.291206,172.000000 73.523132,171.536407 
	C73.055748,166.398178 73.002045,161.723541 73.421600,157.032440 
	C80.224144,157.051727 86.553452,157.087463 92.918915,157.580231 
	C92.970055,162.691513 92.985031,167.345749 93.000000,172.000000 
z"/>
<path fill="#F9D199" opacity="1.000000" stroke="none" 
	d="
M93.458069,172.000000 
	C92.985031,167.345749 92.970055,162.691513 92.977333,157.519760 
	C92.999588,157.002258 93.117599,156.882477 93.574112,156.922592 
	C100.323242,157.009109 106.615868,157.055527 112.937805,157.554901 
	C113.012177,161.364227 113.057228,164.720581 113.102280,168.076950 
	C109.858376,169.167374 106.614479,170.257782 103.685287,171.674103 
	C100.638710,172.000000 97.277428,172.000000 93.458069,172.000000 
z"/>
<path fill="#316033" opacity="1.000000" stroke="none" 
	d="
M72.600006,1.000000 
	C73.004562,6.011449 73.009125,11.022899 73.008347,16.515556 
	C73.003021,16.996763 72.970688,17.029303 72.505219,17.019188 
	C65.692490,17.006630 59.345226,17.004185 52.998978,17.000870 
	C53.000000,17.000000 52.998516,17.001785 52.999107,16.550386 
	C52.983929,13.118155 52.968159,10.137322 52.952385,7.156490 
	C58.304165,5.360514 63.655937,3.564538 69.003860,1.384281 
	C70.066673,1.000000 71.133339,1.000000 72.600006,1.000000 
z"/>
<path fill="#BBDBF7" opacity="1.000000" stroke="none" 
	d="
M72.948349,157.048889 
	C73.002045,161.723541 73.055748,166.398178 73.054726,171.536407 
	C71.933327,172.000000 70.866661,172.000000 69.399994,172.000000 
	C68.717339,171.351578 68.566628,170.250320 68.131950,170.123672 
	C62.859558,168.587555 57.545326,167.195038 52.364651,165.135132 
	C52.665588,162.056854 52.843842,159.608643 53.006142,157.078537 
	C52.990189,156.996658 52.968361,156.831253 53.437347,156.890717 
	C60.274876,156.963577 66.643417,156.977005 72.988495,156.996704 
	C72.965034,157.002975 72.948349,157.048889 72.948349,157.048889 
z"/>
<path fill="#F9D199" opacity="1.000000" stroke="none" 
	d="
M1.000000,77.468399 
	C12.999902,76.999748 12.998822,76.999748 13.000924,89.124710 
	C13.001323,91.422729 13.014082,93.720749 12.573961,96.500427 
	C8.417856,96.988052 4.708928,96.994026 1.000000,97.000000 
	C1.000000,90.645599 1.000000,84.291206 1.000000,77.468399 
z"/>
<path fill="#F6E3D4" opacity="1.000000" stroke="none" 
	d="
M1.000000,97.444168 
	C4.708928,96.994026 8.417856,96.988052 12.592517,96.965363 
	C13.058249,96.948631 13.043821,96.994469 13.021320,97.464752 
	C13.017539,104.271706 13.036258,110.608360 13.025975,116.973999 
	C12.996974,117.002983 12.938932,117.060890 12.517624,117.039154 
	C10.120055,117.010017 8.143793,117.002632 6.167532,116.995239 
	C4.662517,112.786415 3.157502,108.577599 1.326244,104.684387 
	C1.000000,102.629440 1.000000,100.258888 1.000000,97.444168 
z"/>
<path fill="#6F4117" opacity="1.000000" stroke="none" 
	d="
M93.009460,16.990389 
	C98.450424,16.987850 103.882980,17.090406 109.310287,16.965132 
	C112.098320,16.900780 113.101982,18.005045 113.034225,20.742378 
	C112.908020,25.840443 113.005554,30.944046 113.006851,36.521233 
	C113.003738,36.997116 112.982895,37.013050 112.516159,37.006775 
	C105.714066,36.987499 99.378693,36.974499 93.029877,36.495693 
	C93.003731,29.693853 92.991043,23.357817 92.978348,17.021782 
	C92.978355,17.021782 92.998886,17.001120 93.009460,16.990389 
z"/>
<path fill="#6F3E17" opacity="1.000000" stroke="none" 
	d="
M113.014572,36.988392 
	C118.455101,36.987282 123.886971,37.089073 129.313583,36.963493 
	C132.102661,36.898937 133.103912,38.006989 133.035828,40.742313 
	C132.908936,45.839752 133.004471,50.942730 133.013672,56.509285 
	C133.019913,56.975166 133.001053,56.998444 132.562897,57.001175 
	C130.405411,56.962143 128.686096,56.920380 127.133804,56.605850 
	C128.729553,54.760883 130.158264,53.188683 131.996796,51.165512 
	C130.444504,50.258060 129.226868,49.546246 128.006775,48.556366 
	C128.006180,47.907326 128.008057,47.536346 128.331909,47.087372 
	C129.670792,46.200020 130.687729,45.390675 132.414963,44.016018 
	C128.139786,42.766926 127.627525,35.436661 121.661995,40.036026 
	C118.071747,36.522011 115.804993,40.073463 113.135773,40.712055 
	C113.049988,39.206795 113.016441,38.109924 112.982895,37.013050 
	C112.982895,37.013050 113.003738,36.997116 113.014572,36.988392 
z"/>
<path fill="#59954A" opacity="1.000000" stroke="none" 
	d="
M16.222910,36.901730 
	C22.877970,30.275055 29.533030,23.648380 37.010918,16.997242 
	C42.888672,16.982447 47.943592,16.992117 52.998516,17.001785 
	C52.998516,17.001785 53.000000,17.000000 52.999702,17.469090 
	C52.998165,24.294191 52.996929,30.650206 52.527729,37.004066 
	C45.693298,37.024120 39.326836,37.046329 32.495998,37.047249 
	C26.762054,36.984550 21.492483,36.943138 16.222910,36.901730 
z"/>
<path fill="#97C14B" opacity="1.000000" stroke="none" 
	d="
M16.062721,37.233223 
	C21.492483,36.943138 26.762054,36.984550 32.509796,37.508316 
	C33.006306,44.312695 33.024639,50.634716 33.020004,56.979675 
	C32.997036,57.002613 32.950893,57.048279 32.950893,57.048279 
	C24.327242,57.035820 15.703592,57.023361 6.622066,57.018524 
	C9.410304,50.539001 12.656419,44.051861 16.062721,37.233223 
z"/>
<path fill="#447741" opacity="1.000000" stroke="none" 
	d="
M52.999107,16.550386 
	C47.943592,16.992117 42.888672,16.982447 37.358490,16.951256 
	C42.018192,13.727711 47.153160,10.525688 52.620255,7.240078 
	C52.968159,10.137322 52.983929,13.118155 52.999107,16.550386 
z"/>
<path fill="#457841" opacity="1.000000" stroke="none" 
	d="
M144.771057,116.897141 
	C151.825180,116.937637 158.879318,116.978142 166.389099,117.033478 
	C162.639008,124.490532 158.433273,131.932755 153.786392,139.356110 
	C151.962601,138.559601 150.607376,137.175903 149.192429,137.111893 
	C143.796555,136.867798 138.381439,137.049133 132.528091,137.017151 
	C129.671341,136.891647 127.260017,136.820526 125.025246,136.483185 
	C126.277519,135.214478 127.353233,134.211990 128.395370,133.240784 
	C129.754700,134.222656 130.923569,135.066940 131.948563,135.807312 
	C136.622818,133.723923 133.955399,131.437424 132.394958,129.487381 
	C136.671860,125.136475 140.721466,121.016815 144.771057,116.897141 
z"/>
<path fill="#80B145" opacity="1.000000" stroke="none" 
	d="
M132.973511,137.071533 
	C138.381439,137.049133 143.796555,136.867798 149.192429,137.111893 
	C150.607376,137.175903 151.962601,138.559601 153.569489,139.623810 
	C147.451599,145.869476 141.109482,151.828568 134.217255,157.798767 
	C133.441620,157.544907 133.216141,157.279938 132.993835,156.545013 
	C132.989197,149.740555 132.981354,143.406036 132.973511,137.071533 
z"/>
<path fill="#C6CC51" opacity="1.000000" stroke="none" 
	d="
M132.990646,157.014984 
	C133.216141,157.279938 133.441620,157.544907 133.901840,157.927795 
	C127.376221,161.360794 120.615868,164.675842 113.478897,168.033920 
	C113.057228,164.720581 113.012177,161.364227 112.983994,157.503601 
	C113.000877,156.999329 113.093475,156.898621 113.551758,156.934189 
	C120.336906,156.984833 126.663773,156.999908 132.990646,157.014984 
z"/>
<path fill="#F6E3D4" opacity="1.000000" stroke="none" 
	d="
M37.963730,157.131210 
	C36.521740,156.125809 35.079746,155.120407 33.321770,153.518951 
	C32.983482,147.635620 32.961174,142.348358 32.968491,137.031479 
	C32.998116,137.001877 33.057335,136.942627 33.519104,136.961914 
	C40.311485,136.998535 46.642101,137.015854 52.980743,137.499420 
	C52.981968,144.254181 52.975166,150.542725 52.968361,156.831253 
	C52.968361,156.831253 52.990189,156.996658 52.539783,157.021301 
	C47.380829,157.074371 42.672279,157.102783 37.963730,157.131210 
z"/>
<path fill="#F6E3D4" opacity="1.000000" stroke="none" 
	d="
M16.928513,137.096191 
	C15.617767,134.991333 14.307022,132.886459 12.981690,129.958481 
	C12.957713,125.110535 12.948323,121.085716 12.938932,117.060890 
	C12.938932,117.060890 12.996974,117.002983 13.488029,116.993530 
	C20.321489,116.987518 26.663895,116.990952 33.004585,116.995636 
	C33.002865,116.996887 33.012123,116.989578 33.009071,117.459000 
	C33.023129,124.266487 33.040230,130.604553 33.057335,136.942627 
	C33.057335,136.942627 32.998116,137.001877 32.508408,137.009293 
	C26.988640,137.043198 21.958578,137.069687 16.928513,137.096191 
z"/>
<path fill="#BBDBF7" opacity="1.000000" stroke="none" 
	d="
M17.055241,137.411072 
	C21.958578,137.069687 26.988640,137.043198 32.478783,137.038895 
	C32.961174,142.348358 32.983482,147.635620 33.009720,153.380127 
	C27.736422,148.466873 22.459194,143.096405 17.055241,137.411072 
z"/>
<path fill="#92C4EE" opacity="1.000000" stroke="none" 
	d="
M38.101219,157.447784 
	C42.672279,157.102783 47.380829,157.074371 52.555740,157.103180 
	C52.843842,159.608643 52.665588,162.056854 52.199955,164.786575 
	C47.354622,162.633514 42.796665,160.198944 38.101219,157.447784 
z"/>
<path fill="#BCDCF8" opacity="1.000000" stroke="none" 
	d="
M12.517625,117.039154 
	C12.948323,121.085716 12.957713,125.110535 12.935598,129.599304 
	C10.679475,125.953171 8.454856,121.843086 6.198884,117.364120 
	C8.143793,117.002632 10.120055,117.010017 12.517625,117.039154 
z"/>
<path fill="#780A19" opacity="1.000000" stroke="none" 
	d="
M50.896641,97.021873 
	C51.493767,96.480301 52.090897,95.938728 53.123245,94.988533 
	C57.315712,91.101204 61.072956,87.622490 65.244873,83.759842 
	C62.331020,81.012543 60.190220,78.994118 58.076324,76.619270 
	C59.097523,74.918793 60.091820,73.574738 61.170307,72.225525 
	C61.254501,72.220375 61.619747,72.212517 61.721272,72.540787 
	C65.449150,76.137230 69.075508,79.405396 72.791786,83.034119 
	C77.282471,87.954140 81.683243,92.513626 86.186142,97.383850 
	C89.585762,101.139534 92.883255,104.584480 96.017731,108.324066 
	C94.875114,109.539803 93.895523,110.460892 92.615494,111.181717 
	C86.396057,105.198418 86.244514,114.928574 81.646996,114.286682 
	C81.150154,113.838303 80.054802,112.849785 79.138435,111.588448 
	C81.453682,109.077827 83.589935,106.840027 85.772125,104.554092 
	C83.312454,102.004402 81.155777,99.768791 79.003929,97.538193 
	C68.609474,107.590500 68.609474,107.590500 65.431427,104.389565 
	C68.657921,100.965691 71.895615,97.529930 75.375458,93.837212 
	C73.954979,92.641884 72.969376,91.812500 71.854950,90.677383 
	C70.880432,88.953209 70.034744,87.534782 69.189056,86.116356 
	C68.446785,86.165756 67.704514,86.215164 66.962242,86.264572 
	C65.464920,88.254547 64.194572,90.481674 62.419041,92.180954 
	C59.485016,94.988976 56.225040,97.456436 52.908760,99.813927 
	C52.108948,98.714256 51.502796,97.868065 50.896641,97.021873 
z"/>
<path fill="#FDD8B5" opacity="1.000000" stroke="none" 
	d="
M33.006302,116.994392 
	C26.663895,116.990952 20.321489,116.987518 13.517030,116.964554 
	C13.036258,110.608360 13.017539,104.271706 12.997507,97.466385 
	C19.340479,97.011147 25.684761,97.024567 32.509426,97.533478 
	C32.995304,104.350784 33.000801,110.672585 33.006302,116.994392 
z"/>
<path fill="#97C14B" opacity="1.000000" stroke="none" 
	d="
M43.864372,76.980476 
	C33.000187,77.047333 33.001141,77.047333 32.999500,66.432693 
	C32.999065,63.613190 32.990791,60.793686 32.968506,57.511230 
	C32.950893,57.048279 32.997036,57.002613 33.483345,56.995132 
	C40.297638,57.007145 46.625626,57.026638 52.969833,57.494904 
	C53.013889,60.695484 53.041718,63.447292 52.904999,66.481651 
	C49.781757,70.169624 46.823067,73.575050 43.864372,76.980476 
z"/>
<path fill="#F6CC96" opacity="1.000000" stroke="none" 
	d="
M33.004585,116.995636 
	C33.000801,110.672585 32.995304,104.350784 32.973740,97.571457 
	C38.630222,97.079521 44.302773,97.045105 50.435982,97.016281 
	C51.502796,97.868065 52.108948,98.714256 52.888042,100.123932 
	C53.076576,101.103897 53.092171,101.520363 52.899681,102.210487 
	C47.456192,107.621803 42.220783,112.759468 36.729942,117.658394 
	C35.320377,117.276299 34.166248,117.132942 33.012123,116.989578 
	C33.012123,116.989578 33.002865,116.996887 33.004585,116.995636 
z"/>
<path fill="#96B949" opacity="1.000000" stroke="none" 
	d="
M58.049423,76.975685 
	C60.190220,78.994118 62.331020,81.012543 65.244873,83.759842 
	C61.072956,87.622490 57.315712,91.101204 53.264927,94.719536 
	C52.981129,89.219757 52.990868,83.580360 53.416367,77.470657 
	C55.237892,76.992142 56.643658,76.983917 58.049423,76.975685 
z"/>
<path fill="#AFB2AB" opacity="1.000000" stroke="none" 
	d="
M44.166882,77.144531 
	C46.823067,73.575050 49.781757,70.169624 53.200760,66.301163 
	C55.147320,64.761055 56.633572,63.683979 58.398209,62.806396 
	C59.464142,63.921249 60.251694,64.836601 60.986271,65.690384 
	C59.742657,67.273270 58.756069,68.529015 57.449398,69.881622 
	C54.837147,72.294571 52.544975,74.610641 50.252808,76.926712 
	C48.408970,78.325737 46.576962,79.903931 44.166882,77.144531 
z"/>
<path fill="#85AE4C" opacity="1.000000" stroke="none" 
	d="
M50.592712,76.932816 
	C52.544975,74.610641 54.837147,72.294571 57.793228,70.094948 
	C59.333462,70.884491 60.209789,71.557587 61.086113,72.230675 
	C60.091820,73.574738 59.097523,74.918793 58.076324,76.619270 
	C56.643658,76.983917 55.237892,76.992142 53.410114,77.003235 
	C52.302940,76.983704 51.617775,76.961311 50.592712,76.932816 
z"/>
<path fill="#316033" opacity="1.000000" stroke="none" 
	d="
M126.966774,56.878616 
	C128.686096,56.920380 130.405411,56.962143 132.553986,57.012482 
	C132.992477,63.358837 133.001724,69.696609 133.024506,76.498672 
	C133.038040,76.962952 133.004822,76.995140 132.523087,77.001541 
	C125.985893,76.985191 119.930435,76.962433 114.046036,76.650955 
	C116.459808,74.007568 118.702507,71.652901 120.977203,69.264641 
	C119.835663,67.638054 118.908890,66.317490 118.282326,64.853531 
	C121.377281,62.099628 124.172028,59.489120 126.966774,56.878616 
z"/>
<path fill="#770C1A" opacity="1.000000" stroke="none" 
	d="
M144.862701,116.541092 
	C140.721466,121.016815 136.671860,125.136475 132.394958,129.487381 
	C133.955399,131.437424 136.622818,133.723923 131.948563,135.807312 
	C130.923569,135.066940 129.754700,134.222656 128.395370,133.240784 
	C127.353233,134.211990 126.277519,135.214478 124.735550,136.658325 
	C122.953407,138.371628 121.733658,139.766495 120.299911,140.887756 
	C117.931541,142.739899 115.425064,144.415466 112.802071,145.841476 
	C111.921684,144.001556 111.216019,142.485611 110.919724,140.980804 
	C114.691368,138.605087 118.053635,136.218231 121.849861,133.523285 
	C120.024010,131.331665 119.026131,130.133881 117.987823,128.887573 
	C114.878136,131.715546 112.554047,133.829086 110.000580,135.667725 
	C104.486038,129.723862 113.833504,129.278336 113.195984,124.692818 
	C110.756111,122.372887 107.905014,119.661942 104.900162,116.656319 
	C102.110161,113.582726 99.473923,110.803818 97.016830,107.765335 
	C98.119156,106.656738 99.042336,105.807724 100.261414,105.119110 
	C105.058441,109.520439 109.559570,113.761360 114.186623,118.305130 
	C116.787041,121.008415 119.261536,123.408852 122.024719,126.022278 
	C123.378883,127.488747 124.252495,129.031418 125.569794,129.905334 
	C126.647827,130.620499 128.254700,130.538498 129.627121,130.809906 
	C129.481750,129.438599 129.785828,127.746193 129.088074,126.769531 
	C127.977966,125.215706 126.199928,124.139076 124.590057,122.568787 
	C121.983276,119.869156 119.490829,117.461357 116.866577,114.744614 
	C112.163185,109.626511 107.591606,104.817352 103.356735,99.962479 
	C104.477234,98.935852 105.261024,97.954941 106.314453,96.980087 
	C106.943398,96.990349 107.302689,96.994553 107.740341,97.339569 
	C109.542641,99.448685 111.266579,101.216988 113.142303,103.282043 
	C115.855453,106.177032 118.600578,108.621918 120.930328,111.413460 
	C123.664764,114.689896 125.822205,114.405403 128.485077,111.326469 
	C129.548630,110.096725 131.484299,109.621231 133.022980,108.802399 
	C134.166733,109.403496 135.470062,110.704422 136.427002,110.486221 
	C140.899719,109.466354 143.276138,110.898880 144.862701,116.541092 
M133.893036,113.625481 
	C131.940948,114.803375 129.988861,115.981270 128.036774,117.159164 
	C128.525269,117.937706 129.013763,118.716240 129.502243,119.494781 
	C130.716034,119.739899 132.467117,120.609596 133.043518,120.113762 
	C134.818832,118.586548 136.145172,116.537407 137.645950,114.691048 
	C136.553192,114.187332 135.460449,113.683617 133.893036,113.625481 
z"/>
<path fill="#447641" opacity="1.000000" stroke="none" 
	d="
M133.012817,108.351120 
	C131.484299,109.621231 129.548630,110.096725 128.485077,111.326469 
	C125.822205,114.405403 123.664764,114.689896 120.930328,111.413460 
	C118.600578,108.621918 115.855453,106.177032 113.146149,102.815643 
	C112.996262,96.375313 112.994316,90.698135 113.114777,84.723434 
	C113.978981,81.975586 109.602821,79.089233 113.874977,76.939674 
	C119.930435,76.962433 125.985893,76.985191 132.506668,77.017700 
	C132.982193,87.318245 132.992416,97.609039 133.012817,108.351120 
z"/>
<path fill="#316033" opacity="1.000000" stroke="none" 
	d="
M92.512070,17.014130 
	C92.991043,23.357817 93.003731,29.693853 93.010399,36.511837 
	C93.004379,36.993786 92.966705,37.025784 92.501938,37.017601 
	C85.703804,36.991989 79.370438,36.974560 73.026154,36.491539 
	C73.000381,29.693733 72.985535,23.361517 72.970688,17.029303 
	C72.970688,17.029303 73.003021,16.996763 73.019524,16.979984 
	C79.372612,16.977629 85.709198,16.992052 92.512070,17.014130 
z"/>
<path fill="#F9D199" opacity="1.000000" stroke="none" 
	d="
M92.941170,157.062729 
	C86.553452,157.087463 80.224144,157.051727 73.421600,157.032440 
	C72.948349,157.048889 72.965034,157.002975 72.984436,156.529144 
	C73.017372,149.684860 73.030907,143.314407 73.508751,136.963501 
	C80.306267,137.043747 86.639473,137.104477 92.982986,137.623138 
	C93.034729,144.348206 93.076164,150.615341 93.117599,156.882477 
	C93.117599,156.882477 92.999588,157.002258 92.941170,157.062729 
z"/>
<path fill="#C5C950" opacity="1.000000" stroke="none" 
	d="
M93.574112,156.922592 
	C93.076164,150.615341 93.034729,144.348206 92.992340,137.530975 
	C92.991402,136.980896 93.028152,136.800262 93.488770,136.867798 
	C99.166214,137.001602 104.383041,137.067902 109.627151,137.481125 
	C109.939735,138.875244 110.225052,139.922455 110.510361,140.969650 
	C111.216019,142.485611 111.921684,144.001556 112.804626,146.285583 
	C113.019096,150.335297 113.056282,153.616959 113.093475,156.898621 
	C113.093475,156.898621 113.000877,156.999329 112.954681,157.050629 
	C106.615868,157.055527 100.323242,157.009109 93.574112,156.922592 
z"/>
<path fill="#447741" opacity="1.000000" stroke="none" 
	d="
M72.505219,17.019188 
	C72.985535,23.361517 73.000381,29.693733 73.006882,36.513710 
	C72.998528,37.001476 72.960587,37.044640 72.496460,37.028809 
	C65.686157,37.010075 59.339973,37.007172 52.996723,37.002106 
	C52.999657,36.999939 52.995693,37.006218 52.995693,37.006218 
	C52.996929,30.650206 52.998165,24.294191 52.998680,17.469959 
	C59.345226,17.004185 65.692490,17.006630 72.505219,17.019188 
z"/>
<path fill="#FDD8B5" opacity="1.000000" stroke="none" 
	d="
M73.044441,136.943954 
	C73.030907,143.314407 73.017372,149.684860 73.007904,156.522873 
	C66.643417,156.977005 60.274876,156.963577 53.437347,156.890717 
	C52.975166,150.542725 52.981968,144.254181 52.995773,137.480865 
	C53.002773,136.996063 53.032314,136.960022 53.496895,136.973801 
	C60.327705,136.978333 66.693939,136.969070 73.049042,136.970398 
	C73.037918,136.980988 73.044441,136.943954 73.044441,136.943954 
z"/>
<path fill="#335E32" opacity="1.000000" stroke="none" 
	d="
M112.516159,37.006775 
	C113.016441,38.109924 113.049988,39.206795 113.028816,41.032722 
	C108.808563,46.106663 104.643028,50.451550 100.456703,54.716209 
	C100.435913,54.635986 100.330048,54.749443 100.042229,54.516689 
	C97.164505,50.664703 95.112717,53.296150 92.976921,54.411713 
	C92.978325,48.312195 92.972511,42.668991 92.966705,37.025784 
	C92.966705,37.025784 93.004379,36.993786 93.023849,36.977642 
	C99.378693,36.974499 105.714066,36.987499 112.516159,37.006775 
z"/>
<path fill="#A8332E" opacity="1.000000" stroke="none" 
	d="
M128.009949,47.165367 
	C128.008057,47.536346 128.006180,47.907326 127.718185,48.744495 
	C124.008293,52.578194 120.718765,56.098778 117.114143,59.260075 
	C114.657700,61.414421 115.206268,63.086971 117.056831,65.329208 
	C115.347855,70.348274 112.710594,68.172951 110.098061,66.167412 
	C110.051765,66.774109 110.005463,67.380806 109.959167,67.987503 
	C107.633362,67.722794 105.307549,67.458092 102.981743,67.193390 
	C102.579842,66.580574 102.177948,65.967758 101.776047,65.354950 
	C99.034134,69.089203 96.292213,72.823456 93.257370,76.956650 
	C91.612877,74.891068 90.808830,73.881142 90.156555,72.585815 
	C94.788002,67.614258 99.267700,62.928116 104.047150,58.053410 
	C106.353882,55.936939 108.313919,53.957077 110.377945,52.092331 
	C114.223587,48.617977 118.129730,45.210598 122.276749,41.987015 
	C124.365181,43.854244 126.187569,45.509808 128.009949,47.165367 
z"/>
<path fill="#770B19" opacity="1.000000" stroke="none" 
	d="
M122.010696,41.775345 
	C118.129730,45.210598 114.223587,48.617977 110.377945,52.092331 
	C108.313919,53.957077 106.353882,55.936939 103.803986,57.865082 
	C102.333199,56.842354 101.405350,55.819397 100.477493,54.796440 
	C104.643028,50.451550 108.808563,46.106663 113.081055,41.441109 
	C115.804993,40.073463 118.071747,36.522011 121.661377,40.317322 
	C122.005928,41.025997 122.008308,41.400673 122.010696,41.775345 
z"/>
<path fill="#760918" opacity="1.000000" stroke="none" 
	d="
M117.126808,64.991173 
	C115.206268,63.086971 114.657700,61.414421 117.114143,59.260075 
	C120.718765,56.098778 124.008293,52.578194 127.720657,49.022560 
	C129.226868,49.546246 130.444504,50.258060 131.996796,51.165512 
	C130.158264,53.188683 128.729553,54.760883 127.133804,56.605850 
	C124.172028,59.489120 121.377281,62.099628 118.068558,64.852280 
	C117.554573,64.994431 117.126808,64.991173 117.126808,64.991173 
z"/>
<path fill="#760918" opacity="1.000000" stroke="none" 
	d="
M122.276749,41.987015 
	C122.008308,41.400673 122.005928,41.025997 122.004166,40.370029 
	C127.627525,35.436661 128.139786,42.766926 132.414963,44.016018 
	C130.687729,45.390675 129.670792,46.200020 128.331909,47.087368 
	C126.187569,45.509808 124.365181,43.854244 122.276749,41.987015 
z"/>
<path fill="#80B145" opacity="1.000000" stroke="none" 
	d="
M52.953613,57.046131 
	C46.625626,57.026638 40.297638,57.007145 33.506313,56.972191 
	C33.024639,50.634716 33.006306,44.312695 32.974167,37.529606 
	C39.326836,37.046329 45.693298,37.024120 52.527729,37.004066 
	C52.995693,37.006218 52.999657,36.999939 52.998890,37.470062 
	C53.013832,44.278103 53.029541,50.616016 53.022388,56.977028 
	C52.999527,57.000126 52.953613,57.046131 52.953613,57.046131 
z"/>
<path fill="#97C14B" opacity="1.000000" stroke="none" 
	d="
M113.551758,156.934189 
	C113.056282,153.616959 113.019096,150.335297 112.979347,146.609528 
	C115.425064,144.415466 117.931541,142.739899 120.299911,140.887756 
	C121.733658,139.766495 122.953407,138.371628 124.558998,136.924530 
	C127.260017,136.820526 129.671341,136.891647 132.528076,137.017151 
	C132.981354,143.406036 132.989197,149.740555 132.993835,156.545013 
	C126.663773,156.999908 120.336906,156.984833 113.551758,156.934189 
z"/>
<path fill="#FBD5B3" opacity="1.000000" stroke="none" 
	d="
M33.009071,117.459000 
	C34.166248,117.132942 35.320377,117.276299 36.674530,117.990921 
	C37.555721,119.406197 38.236889,120.250198 38.973236,121.417183 
	C39.090828,122.168358 39.153248,122.596550 38.950039,123.258972 
	C34.844933,129.434601 42.344738,129.153244 44.122879,132.921844 
	C44.778454,131.976715 45.434029,131.031570 46.393116,130.066971 
	C47.101784,130.059464 47.506935,130.071411 48.095070,130.394562 
	C49.766045,132.910797 51.346287,132.325119 52.966690,131.297211 
	C52.995964,133.476044 53.014137,135.218033 53.032310,136.960022 
	C53.032314,136.960022 53.002773,136.996063 52.987747,137.014618 
	C46.642101,137.015854 40.311485,136.998535 33.519104,136.961914 
	C33.040230,130.604553 33.023129,124.266487 33.009071,117.459000 
z"/>
<path fill="#AB3730" opacity="1.000000" stroke="none" 
	d="
M47.912090,130.083359 
	C47.506935,130.071411 47.101784,130.059464 46.334789,129.722244 
	C43.720520,127.272903 41.468090,125.148827 39.215664,123.024742 
	C39.153248,122.596550 39.090828,122.168358 39.320770,121.363190 
	C41.017895,119.867928 42.506664,118.839241 43.812138,117.615074 
	C48.269863,113.434990 52.663113,109.186150 57.364120,104.800323 
	C62.426113,100.085785 67.204941,95.534447 71.983772,90.983116 
	C72.969376,91.812500 73.954979,92.641884 75.375458,93.837212 
	C71.895615,97.529930 68.657921,100.965691 65.431427,104.389565 
	C68.609474,107.590500 68.609474,107.590500 79.003929,97.538193 
	C81.155777,99.768791 83.312454,102.004402 85.772125,104.554092 
	C83.589935,106.840027 81.453682,109.077827 78.931053,111.632492 
	C78.544678,111.949356 78.121674,111.994415 77.953491,111.706467 
	C75.672844,107.798447 73.581779,109.874283 72.410851,110.900726 
	C69.902344,110.544373 68.224731,110.219131 66.535683,110.141006 
	C66.206360,110.125763 65.832626,111.070656 65.530014,111.500732 
	C66.425392,112.880379 67.191872,114.061424 67.957146,115.240608 
	C66.865234,116.605812 65.952263,117.747292 64.795013,118.929794 
	C64.550735,118.970810 64.062920,119.057159 63.908852,118.758408 
	C62.430382,117.925850 60.293358,116.589714 59.906479,116.981552 
	C55.749451,121.191940 51.868584,125.674988 47.912090,130.083359 
z"/>
<path fill="#97C04B" opacity="1.000000" stroke="none" 
	d="
M78.121674,111.994415 
	C78.121674,111.994415 78.544678,111.949356 78.752060,111.905312 
	C80.054802,112.849785 81.150154,113.838303 81.646996,114.286682 
	C86.244514,114.928574 86.396057,105.198418 92.633148,111.573975 
	C92.985771,113.755745 93.020309,115.345001 93.037048,117.408707 
	C93.022224,124.188866 93.025192,130.494568 93.028152,136.800262 
	C93.028152,136.800262 92.991402,136.980896 92.982040,137.073059 
	C86.639473,137.104477 80.306267,137.043747 73.508751,136.963501 
	C73.044441,136.943954 73.037918,136.980988 73.029419,136.505844 
	C72.981331,129.999390 72.941750,123.968071 73.040848,117.636276 
	C74.826912,115.555336 76.474289,113.774872 78.121674,111.994415 
z"/>
<path fill="#CD595D" opacity="1.000000" stroke="none" 
	d="
M71.854950,90.677383 
	C67.204941,95.534447 62.426113,100.085785 57.233036,104.494949 
	C55.581783,103.547470 54.344772,102.742157 53.107765,101.936836 
	C53.092171,101.520363 53.076576,101.103897 53.081699,100.377411 
	C56.225040,97.456436 59.485016,94.988976 62.419041,92.180954 
	C64.194572,90.481674 65.464920,88.254547 66.962242,86.264572 
	C67.704514,86.215164 68.446785,86.165756 69.189056,86.116356 
	C70.034744,87.534782 70.880432,88.953209 71.854950,90.677383 
z"/>
<path fill="#570604" opacity="1.000000" stroke="none" 
	d="
M86.084007,97.073105 
	C81.683243,92.513626 77.282471,87.954140 72.946205,82.814163 
	C73.542473,81.766350 74.074242,81.299034 74.989685,80.869141 
	C75.629265,80.917686 75.885170,80.928810 76.435234,81.089218 
	C80.913437,85.477547 85.097473,89.716591 89.115311,94.231926 
	C87.994072,95.363174 87.039040,96.218140 86.084007,97.073105 
z"/>
<path fill="#373835" opacity="1.000000" stroke="none" 
	d="
M61.170307,72.225525 
	C60.209789,71.557587 59.333462,70.884491 58.113308,69.998077 
	C58.756069,68.529015 59.742657,67.273270 60.986271,65.690384 
	C60.251694,64.836601 59.464142,63.921249 58.461823,62.522095 
	C59.399715,61.027748 60.552380,60.017200 61.904716,59.292671 
	C63.056587,60.367348 64.008789,61.156010 64.805008,61.815483 
	C66.761467,60.368031 68.350639,59.192307 70.073669,58.304085 
	C70.533257,59.140068 70.858986,59.688549 71.168846,60.594280 
	C68.825752,63.939449 66.498520,66.927368 63.897964,70.115173 
	C62.956341,70.947548 62.288044,71.580032 61.619751,72.212517 
	C61.619747,72.212517 61.254501,72.220375 61.170307,72.225525 
z"/>
<path fill="#D25561" opacity="1.000000" stroke="none" 
	d="
M86.186142,97.383850 
	C87.039040,96.218140 87.994072,95.363174 89.468506,94.202148 
	C90.934875,93.930473 91.881844,93.964859 92.896378,93.993210 
	C92.963951,93.987167 93.074226,94.066200 93.027679,94.441589 
	C95.309265,98.197556 97.637390,101.578133 99.965515,104.958710 
	C99.042336,105.807724 98.119156,106.656738 96.853027,107.766129 
	C96.510063,108.026505 96.180748,108.029419 96.180748,108.029419 
	C92.883255,104.584480 89.585762,101.139534 86.186142,97.383850 
z"/>
<path fill="#D25762" opacity="1.000000" stroke="none" 
	d="
M61.721275,72.540787 
	C62.288044,71.580032 62.956341,70.947548 64.222641,70.176102 
	C67.212654,72.025925 69.604668,74.014717 72.115463,76.308731 
	C73.024826,78.019875 73.815422,79.425804 74.606010,80.831726 
	C74.074242,81.299034 73.542473,81.766350 72.856285,82.453613 
	C69.075508,79.405396 65.449150,76.137230 61.721275,72.540787 
z"/>
<path fill="#5B9148" opacity="1.000000" stroke="none" 
	d="
M96.017731,108.324066 
	C96.180748,108.029419 96.510063,108.026505 96.673874,108.025711 
	C99.473923,110.803818 102.110161,113.582726 104.436363,116.673218 
	C100.435837,116.967957 96.745346,116.951103 93.054855,116.934258 
	C93.020309,115.345001 92.985771,113.755745 92.933578,111.774231 
	C93.895523,110.460892 94.875114,109.539803 96.017731,108.324066 
z"/>
<path fill="#80B146" opacity="1.000000" stroke="none" 
	d="
M61.705044,59.006657 
	C60.552380,60.017200 59.399715,61.027748 58.183437,62.322594 
	C56.633572,63.683979 55.147320,64.761055 53.365311,66.018616 
	C53.041718,63.447292 53.013889,60.695484 52.969833,57.494904 
	C52.953613,57.046131 52.999527,57.000126 53.474892,56.993717 
	C56.703960,57.031029 59.457661,57.074749 62.123142,57.432640 
	C61.924961,58.166759 61.815002,58.586708 61.705044,59.006657 
z"/>
<path fill="#770719" opacity="1.000000" stroke="none" 
	d="
M52.899681,102.210487 
	C54.344772,102.742157 55.581783,103.547470 56.949875,104.658165 
	C52.663113,109.186150 48.269863,113.434990 43.812138,117.615074 
	C42.506664,118.839241 41.017895,119.867928 39.265594,121.040207 
	C38.236889,120.250198 37.555721,119.406197 36.929962,118.229660 
	C42.220783,112.759468 47.456192,107.621803 52.899681,102.210487 
z"/>
<path fill="#770B19" opacity="1.000000" stroke="none" 
	d="
M117.056831,65.329208 
	C117.126808,64.991173 117.554573,64.994431 117.768341,64.995682 
	C118.908890,66.317490 119.835663,67.638054 120.977203,69.264641 
	C118.702507,71.652901 116.459808,74.007568 114.046036,76.650955 
	C109.602821,79.089233 113.978981,81.975586 112.821823,84.853065 
	C110.721085,86.898987 109.035690,88.517761 107.035461,89.997704 
	C105.589592,89.034729 104.458557,88.210579 103.413704,87.449226 
	C102.078331,88.454994 101.045685,89.232758 99.718903,89.860199 
	C98.270020,89.125069 97.115273,88.540245 95.930107,87.616554 
	C91.280006,82.523262 86.660332,77.768837 81.892159,72.713531 
	C80.382202,70.976852 78.834862,69.672745 77.702644,68.074539 
	C75.983513,65.647858 74.552582,63.017010 73.293922,60.276279 
	C78.576286,58.029102 78.752083,64.680283 83.409294,64.875793 
	C85.530579,62.608994 88.168037,59.790604 91.085815,56.842621 
	C91.900650,56.098030 92.435181,55.483025 92.969704,54.868019 
	C95.112717,53.296150 97.164505,50.664703 99.796463,54.690456 
	C95.250099,59.707928 90.661697,64.318878 85.734833,69.269943 
	C87.356041,70.637260 88.680412,71.754242 90.004791,72.871216 
	C90.808830,73.881142 91.612877,74.891068 93.257370,76.956650 
	C96.292213,72.823456 99.034134,69.089203 101.776047,65.354950 
	C102.177948,65.967758 102.579842,66.580574 102.981743,67.193390 
	C105.307549,67.458092 107.633362,67.722794 109.959167,67.987503 
	C110.005463,67.380806 110.051765,66.774109 110.098061,66.167412 
	C112.710594,68.172951 115.347855,70.348274 117.056831,65.329208 
M107.288528,76.409622 
	C107.766060,74.668770 108.243591,72.927910 108.721123,71.187057 
	C107.009346,71.748573 105.105530,72.010574 103.637321,72.951965 
	C102.019867,73.989059 100.855667,75.708847 99.400261,77.027771 
	C96.035667,80.076874 96.910370,81.931480 101.256752,83.536972 
	C104.917236,88.104584 105.907669,82.820892 107.789825,81.602028 
	C110.590813,79.788147 109.224815,78.188919 107.288528,76.409622 
z"/>
<path fill="#80B045" opacity="1.000000" stroke="none" 
	d="
M93.037056,117.408707 
	C96.745346,116.951103 100.435837,116.967957 104.590118,116.967903 
	C107.905014,119.661942 110.756111,122.372887 113.195984,124.692818 
	C113.833504,129.278336 104.486038,129.723862 109.888489,135.989502 
	C109.870468,136.768875 109.735168,136.951538 109.599869,137.134186 
	C104.383041,137.067902 99.166214,137.001602 93.488770,136.867798 
	C93.025192,130.494568 93.022224,124.188866 93.037056,117.408707 
z"/>
<path fill="#AA332E" opacity="1.000000" stroke="none" 
	d="
M100.261414,105.119110 
	C97.637390,101.578133 95.309265,98.197556 93.400894,94.422287 
	C96.887115,96.021133 99.953568,98.014664 103.020027,100.008194 
	C107.591606,104.817352 112.163185,109.626511 116.743141,115.021805 
	C115.854576,116.406059 114.957634,117.204170 114.060699,118.002289 
	C109.559570,113.761360 105.058441,109.520439 100.261414,105.119110 
z"/>
<path fill="#88090A" opacity="1.000000" stroke="none" 
	d="
M103.356735,99.962479 
	C99.953568,98.014664 96.887115,96.021133 93.447441,94.046906 
	C93.074226,94.066200 92.963951,93.987167 92.963882,93.599518 
	C92.966225,92.149223 92.968643,91.086563 93.246849,89.894684 
	C94.335274,89.162117 95.147903,88.558769 95.960541,87.955429 
	C97.115273,88.540245 98.270020,89.125069 99.865059,90.153595 
	C102.218506,92.722878 104.131660,94.848457 106.044815,96.974030 
	C105.261024,97.954941 104.477234,98.935852 103.356735,99.962479 
z"/>
<path fill="#9D352C" opacity="1.000000" stroke="none" 
	d="
M109.627151,137.481110 
	C109.735168,136.951538 109.870468,136.768875 110.117867,136.264420 
	C112.554047,133.829086 114.878136,131.715546 117.987823,128.887573 
	C119.026131,130.133881 120.024010,131.331665 121.849861,133.523285 
	C118.053635,136.218231 114.691368,138.605087 110.919731,140.980804 
	C110.225052,139.922455 109.939735,138.875244 109.627151,137.481110 
z"/>
<path fill="#5A8A45" opacity="1.000000" stroke="none" 
	d="
M107.350304,90.136528 
	C109.035690,88.517761 110.721085,86.898987 112.699425,85.150589 
	C112.994316,90.698135 112.996262,96.375313 112.994362,102.518890 
	C111.266579,101.216988 109.542641,99.448685 107.996040,97.097015 
	C111.931076,93.867531 108.295494,92.175652 107.350304,90.136528 
z"/>
<path fill="#CD565F" opacity="1.000000" stroke="none" 
	d="
M114.186630,118.305130 
	C114.957634,117.204170 115.854576,116.406059 116.874954,115.330750 
	C119.490829,117.461357 121.983276,119.869156 124.334686,122.721603 
	C123.374451,124.047264 122.555244,124.928284 121.736038,125.809296 
	C119.261536,123.408852 116.787041,121.008415 114.186630,118.305130 
z"/>
<path fill="#580101" opacity="1.000000" stroke="none" 
	d="
M107.035461,89.997704 
	C108.295494,92.175652 111.931076,93.867531 107.917679,96.756210 
	C107.302689,96.994553 106.943398,96.990349 106.314461,96.980087 
	C104.131660,94.848457 102.218506,92.722878 100.159195,90.303909 
	C101.045685,89.232758 102.078331,88.454994 103.413704,87.449226 
	C104.458557,88.210579 105.589592,89.034729 107.035461,89.997704 
z"/>
<path fill="#8A0609" opacity="1.000000" stroke="none" 
	d="
M122.024719,126.022285 
	C122.555244,124.928284 123.374451,124.047264 124.449020,123.013428 
	C126.199928,124.139076 127.977966,125.215706 129.088074,126.769531 
	C129.785828,127.746193 129.481750,129.438599 129.627121,130.809906 
	C128.254700,130.538498 126.647827,130.620499 125.569794,129.905334 
	C124.252495,129.031418 123.378883,127.488747 122.024719,126.022285 
z"/>
<path fill="#8C0308" opacity="1.000000" stroke="none" 
	d="
M134.130371,113.402695 
	C135.460449,113.683617 136.553192,114.187332 137.645950,114.691040 
	C136.145172,116.537407 134.818832,118.586548 133.043518,120.113762 
	C132.467117,120.609596 130.716034,119.739899 129.502243,119.494781 
	C129.013763,118.716240 128.525269,117.937706 128.036774,117.159164 
	C129.988861,115.981270 131.940948,114.803375 134.130371,113.402695 
z"/>
<path fill="#467842" opacity="1.000000" stroke="none" 
	d="
M92.976921,54.411713 
	C92.435181,55.483025 91.900650,56.098030 90.635101,56.854034 
	C85.425819,56.994267 80.931358,57.202229 76.479866,56.856697 
	C75.254898,56.761616 74.158249,55.013435 73.233032,53.785736 
	C75.607010,52.113667 77.750679,50.679646 79.894348,49.245628 
	C79.386284,48.260658 78.878220,47.275684 78.370155,46.290714 
	C76.596466,46.290714 74.822769,46.290714 73.035065,45.823196 
	C73.000900,42.585335 72.980743,39.814987 72.960587,37.044640 
	C72.960587,37.044640 72.998528,37.001476 73.017799,36.979301 
	C79.370438,36.974560 85.703804,36.991989 92.501938,37.017601 
	C92.972511,42.668991 92.978325,48.312195 92.976921,54.411713 
z"/>
<path fill="#59954A" opacity="1.000000" stroke="none" 
	d="
M72.496460,37.028809 
	C72.980743,39.814987 73.000900,42.585335 72.879509,46.097317 
	C69.229095,50.265457 65.720230,53.691963 62.211365,57.118469 
	C59.457661,57.074749 56.703960,57.031029 53.497753,56.970619 
	C53.029541,50.616016 53.013832,44.278103 52.995956,37.472229 
	C59.339973,37.007172 65.686157,37.010075 72.496460,37.028809 
z"/>
<path fill="#F8CF98" opacity="1.000000" stroke="none" 
	d="
M72.902161,117.936768 
	C72.941750,123.968071 72.981331,129.999390 73.040543,136.495255 
	C66.693939,136.969070 60.327705,136.978333 53.496891,136.973801 
	C53.014137,135.218033 52.995964,133.476044 53.096016,130.993744 
	C56.830467,126.521332 60.446690,122.789246 64.062912,119.057159 
	C64.062920,119.057159 64.550735,118.970810 65.067596,119.186295 
	C66.519524,120.213379 67.454582,121.024979 68.350685,121.802765 
	C70.008072,120.394997 71.455116,119.165878 72.902161,117.936768 
z"/>
<path fill="#CD5560" opacity="1.000000" stroke="none" 
	d="
M90.156555,72.585815 
	C88.680412,71.754242 87.356041,70.637260 85.734833,69.269943 
	C90.661697,64.318878 95.250099,59.707928 100.084274,54.923210 
	C100.330048,54.749443 100.435913,54.635986 100.456711,54.716217 
	C101.405350,55.819397 102.333199,56.842354 103.504227,58.053638 
	C99.267700,62.928116 94.788002,67.614258 90.156555,72.585815 
z"/>
<path fill="#7D0E1E" opacity="1.000000" stroke="none" 
	d="
M63.908848,118.758408 
	C60.446690,122.789246 56.830467,126.521332 53.084915,130.556900 
	C51.346287,132.325119 49.766045,132.910797 48.095070,130.394562 
	C51.868584,125.674988 55.749451,121.191940 59.906479,116.981552 
	C60.293358,116.589714 62.430382,117.925850 63.908848,118.758408 
z"/>
<path fill="#7D101F" opacity="1.000000" stroke="none" 
	d="
M38.950039,123.258972 
	C41.468090,125.148827 43.720520,127.272903 46.031277,129.741714 
	C45.434029,131.031570 44.778454,131.976715 44.122879,132.921844 
	C42.344738,129.153244 34.844933,129.434601 38.950039,123.258972 
z"/>
<path fill="#7A0D1B" opacity="1.000000" stroke="none" 
	d="
M73.040848,117.636276 
	C71.455116,119.165878 70.008072,120.394997 68.350685,121.802765 
	C67.454582,121.024979 66.519524,120.213379 65.311874,119.145279 
	C65.952263,117.747292 66.865234,116.605812 67.957146,115.240608 
	C67.191872,114.061424 66.425392,112.880379 65.530014,111.500732 
	C65.832626,111.070656 66.206360,110.125763 66.535683,110.141006 
	C68.224731,110.219131 69.902344,110.544373 72.410851,110.900726 
	C73.581779,109.874283 75.672844,107.798447 77.953491,111.706467 
	C76.474289,113.774872 74.826912,115.555336 73.040848,117.636276 
z"/>
<path fill="#109FCA" opacity="1.000000" stroke="none" 
	d="
M92.971054,90.023911 
	C92.968643,91.086563 92.966225,92.149223 92.896309,93.605560 
	C91.881844,93.964859 90.934875,93.930473 89.634712,93.925865 
	C85.097473,89.716591 80.913437,85.477547 76.360519,80.725174 
	C77.328888,79.140793 78.666130,78.069725 80.152481,77.296021 
	C84.524742,81.736885 88.747902,85.880394 92.971054,90.023911 
z"/>
<path fill="#581914" opacity="1.000000" stroke="none" 
	d="
M80.003372,76.998665 
	C78.666130,78.069725 77.328888,79.140793 76.066360,80.575897 
	C75.885170,80.928810 75.629265,80.917686 74.989685,80.869141 
	C73.815422,79.425804 73.024826,78.019875 72.371994,76.100937 
	C74.743439,70.858925 77.550125,75.763451 80.023308,75.449860 
	C80.013496,76.172211 80.008438,76.585434 80.003372,76.998665 
z"/>
<path fill="#A5372F" opacity="1.000000" stroke="none" 
	d="
M80.028053,75.140739 
	C77.550125,75.763451 74.743439,70.858925 72.253212,75.795715 
	C69.604668,74.014717 67.212654,72.025925 64.495972,69.976212 
	C66.498520,66.927368 68.825752,63.939449 71.475586,60.584534 
	C72.198540,60.302654 72.598885,60.387775 72.999229,60.472893 
	C74.552582,63.017010 75.983513,65.647858 77.702644,68.074539 
	C78.834862,69.672745 80.382202,70.976852 81.725189,72.954811 
	C81.147163,74.044891 80.587608,74.592819 80.028053,75.140739 
z"/>
<path fill="#ACB0AB" opacity="1.000000" stroke="none" 
	d="
M62.123142,57.432640 
	C65.720230,53.691963 69.229095,50.265457 72.893524,46.564835 
	C74.822769,46.290714 76.596466,46.290714 78.370155,46.290714 
	C78.878220,47.275684 79.386284,48.260658 79.894348,49.245628 
	C77.750679,50.679646 75.607010,52.113667 72.928543,53.911934 
	C71.575768,55.522984 70.757782,56.769783 69.939804,58.016586 
	C68.350639,59.192307 66.761467,60.368031 64.805008,61.815483 
	C64.008789,61.156010 63.056587,60.367348 61.904716,59.292671 
	C61.815002,58.586708 61.924961,58.166759 62.123142,57.432640 
z"/>
<path fill="#5B8D47" opacity="1.000000" stroke="none" 
	d="
M70.073669,58.304085 
	C70.757782,56.769783 71.575768,55.522984 72.698227,54.149986 
	C74.158249,55.013435 75.254898,56.761616 76.479866,56.856697 
	C80.931358,57.202229 85.425819,56.994267 90.354782,56.983627 
	C88.168037,59.790604 85.530579,62.608994 83.409294,64.875793 
	C78.752083,64.680283 78.576286,58.029102 73.293922,60.276279 
	C72.598885,60.387775 72.198540,60.302654 71.491455,60.227280 
	C70.858986,59.688549 70.533257,59.140068 70.073669,58.304085 
z"/>
<path fill="#560A08" opacity="1.000000" stroke="none" 
	d="
M80.023308,75.449860 
	C80.587608,74.592819 81.147163,74.044891 81.873688,73.255692 
	C86.660332,77.768837 91.280006,82.523262 95.930115,87.616562 
	C95.147903,88.558769 94.335274,89.162117 93.246849,89.894684 
	C88.747902,85.880394 84.524742,81.736885 80.152481,77.296021 
	C80.008438,76.585434 80.013496,76.172211 80.023308,75.449860 
z"/>
<path fill="#A6342E" opacity="1.000000" stroke="none" 
	d="
M100.975456,82.976791 
	C96.910370,81.931480 96.035667,80.076874 99.400261,77.027771 
	C100.855667,75.708847 102.019867,73.989059 103.637321,72.951965 
	C105.105530,72.010574 107.009346,71.748573 108.721123,71.187057 
	C108.243591,72.927910 107.766060,74.668770 106.838593,76.849701 
	C104.584251,79.185448 102.779854,81.081116 100.975456,82.976791 
z"/>
<path fill="#8B0408" opacity="1.000000" stroke="none" 
	d="
M101.116104,83.256882 
	C102.779854,81.081116 104.584251,79.185448 106.678719,77.141159 
	C109.224815,78.188919 110.590813,79.788147 107.789825,81.602028 
	C105.907669,82.820892 104.917236,88.104584 101.116104,83.256882 
z"/>
</svg>